PathFileType	4	(X/Y/Z)	RBDS04static.trc
DataRate	CameraRate	NumFrames	NumMarkers	Units	OrigDataRate	OrigDataStartFrame	OrigNumFrames
150.000000	150.000000	4	48	mm	150.000000	131	150
Frame#	Time	L.Ankle			L.Ankle.Medial			L.ASIS			L.GTR			L.Heel.Bottom			L.Heel.Lateral			L.Heel.Top			L.HF			L.Iliac.Crest			L.Knee			L.Knee.Medial			L.MT1			L.MT2			L.MT5			L.PSIS			L.Shank.Bottom.Lateral			L.Shank.Bottom.Medial			L.Shank.Top.Lateral			L.Shank.Top.Medial			L.Thigh.Bottom.Lateral			L.Thigh.Bottom.Medial			L.Thigh.Top.Lateral			L.Thigh.Top.Medial			L.TT			R.Ankle			R.Ankle.Medial			R.ASIS			R.GTR			R.Heel.Bottom			R.Heel.Lateral			R.Heel.Top			R.HF			R.Iliac.Crest			R.Knee			R.Knee.Medial			R.MT1			R.MT2			R.MT5			R.PSIS			R.Shank.Bottom.Lateral			R.Shank.Bottom.Medial			R.Shank.Top.Lateral			R.Shank.Top.Medial			R.Thigh.Bottom.Lateral			R.Thigh.Bottom.Medial			R.Thigh.Top.Lateral			R.Thigh.Top.Medial			R.TT			
		X1	Y1	Z1	X2	Y2	Z2	X3	Y3	Z3	X4	Y4	Z4	X5	Y5	Z5	X6	Y6	Z6	X7	Y7	Z7	X8	Y8	Z8	X9	Y9	Z9	X10	Y10	Z10	X11	Y11	Z11	X12	Y12	Z12	X13	Y13	Z13	X14	Y14	Z14	X15	Y15	Z15	X16	Y16	Z16	X17	Y17	Z17	X18	Y18	Z18	X19	Y19	Z19	X20	Y20	Z20	X21	Y21	Z21	X22	Y22	Z22	X23	Y23	Z23	X24	Y24	Z24	X25	Y25	Z25	X26	Y26	Z26	X27	Y27	Z27	X28	Y28	Z28	X29	Y29	Z29	X30	Y30	Z30	X31	Y31	Z31	X32	Y32	Z32	X33	Y33	Z33	X34	Y34	Z34	X35	Y35	Z35	X36	Y36	Z36	X37	Y37	Z37	X38	Y38	Z38	X39	Y39	Z39	X40	Y40	Z40	X41	Y41	Z41	X42	Y42	Z42	X43	Y43	Z43	X44	Y44	Z44	X45	Y45	Z45	X46	Y46	Z46	X47	Y47	Z47	X48	Y48	Z48	

132	0.8733333333333334	694.096435546875	100.7857666015625	1055.10107421875	715.2720947265625	105.0096206665039	1134.25244140625	837.5361938476563	977.9371948242188	1131.881591796875	747.1129760742188	896.42724609375	1064.067749023438	629.645263671875	38.84062576293945	1086.573974609375	662.402099609375	58.41217803955078	1046.564208984375	638.5687255859375	85.59280395507813	1087.598510742188	700.6521606445313	451.3580322265625	1050.51953125	762.4532470703125	1039.435302734375	1086.385498046875	710.9260864257813	516.6878051757813	1056.816040039063	703.3283081054688	504.9311828613281	1170.957153320313	842.7740478515625	61.37728118896484	1129.280151367188	841.72705078125	65.896484375	1081.754638671875	816.511962890625	49.63853454589844	1028.266357421875	668.83740234375	1000.699951171875	1188.88623046875	695.792724609375	184.4557495117188	1047.511108398438	652.7959594726563	179.4029846191406	1074.40185546875	686.2739868164063	264.2133178710938	1038.54052734375	641.3685913085938	263.4466857910156	1067.604248046875	728.477783203125	632.4654541015625	1043.234741210938	666.2607421875	634.8287353515625	1081.952392578125	727.188720703125	743.0367431640625	1042.131103515625	671.314697265625	745.1497802734375	1083.018432617188	750.4413452148438	430.4866027832031	1097.972778320313	692.7340087890625	95.80282592773438	1398.919067382813	714.7151489257813	111.0058288574219	1320.516723632813	832.0234375	975.4019775390625	1335.670043945313	763.9133911132813	893.5243530273438	1400.58740234375	628.4237060546875	39.17832565307617	1364.789794921875	660.2611083984375	56.38275146484375	1405.317626953125	636.0198974609375	84.78042602539063	1364.542114257813	713.527587890625	450.0449829101563	1415.569946289063	759.322998046875	1029.80322265625	1376.282104492188	711.519287109375	526.7505493164063	1405.406982421875	715.7620849609375	506.8314514160156	1291.595947265625	842.0064697265625	63.35176849365234	1332.8486328125	855.758056640625	64.65131378173828	1375.331176757813	814.193603515625	53.01929473876953	1430.3544921875	666.7977905273438	1002.299865722656	1274.261596679688	685.9053955078125	179.07080078125	1410.013427734375	648.852783203125	181.6509246826172	1370.022827148438	676.7550048828125	258.9928894042969	1421.127685546875	642.1123657226563	260.6455993652344	1379.574829101563	720.9671020507813	618.5062866210938	1413.807739257813	664.9859619140625	618.7280883789063	1362.646850585938	714.4338989257813	728.9796142578125	1417.656127929688	663.7806396484375	728.618896484375	1368.505737304688	762.5542602539063	432.7529296875	1360.553833007813	
133	0.88	694.09814453125	100.7872543334961	1055.114501953125	715.264404296875	105.014404296875	1134.247680664063	837.55224609375	977.9373168945313	1131.875366210938	747.113525390625	896.4218139648438	1064.06591796875	629.646484375	38.83811569213867	1086.561279296875	662.4072265625	58.41290283203125	1046.559936523438	638.5726928710938	85.58500671386719	1087.588989257813	700.64599609375	451.3549194335938	1050.517822265625	762.4473266601563	1039.4228515625	1086.379516601563	710.9173583984375	516.67724609375	1056.817260742188	703.3284912109375	504.9362487792969	1170.952392578125	842.7794189453125	61.38824081420898	1129.286743164063	841.7423706054688	65.89507293701172	1081.745361328125	816.5142211914063	49.63662338256836	1028.261962890625	668.843017578125	1000.691833496094	1188.888916015625	695.7849731445313	184.4604949951172	1047.509033203125	652.7944946289063	179.4027404785156	1074.402465820313	686.27978515625	264.2152709960938	1038.535522460938	641.3711547851563	263.4530639648438	1067.611328125	728.4827880859375	632.4717407226563	1043.234497070313	666.267578125	634.8290405273438	1081.940185546875	727.1991577148438	743.0448608398438	1042.141845703125	671.3201293945313	745.14599609375	1083.015747070313	750.4559326171875	430.4915161132813	1097.96337890625	692.739013671875	95.80462646484375	1398.919677734375	714.7263793945313	111.011474609375	1320.511108398438	832.0484008789063	975.414306640625	1335.654541015625	763.9344482421875	893.5315551757813	1400.588012695313	628.4213256835938	39.1768684387207	1364.79345703125	660.2612915039063	56.38394546508789	1405.32568359375	636.0266723632813	84.76841735839844	1364.534057617188	713.5330810546875	450.0478210449219	1415.577392578125	759.3463745117188	1029.8125	1376.272583007813	711.537841796875	526.7491455078125	1405.404907226563	715.7808837890625	506.8335876464844	1291.604370117188	842.000732421875	63.35440063476563	1332.850708007813	855.7565307617188	64.65880584716797	1375.328247070313	814.1888427734375	53.01456451416016	1430.355590820313	666.8042602539063	1002.29736328125	1274.2646484375	685.9051513671875	179.0748291015625	1410.00927734375	648.8572387695313	181.6480865478516	1370.018188476563	676.7536010742188	258.9994506835938	1421.127319335938	642.1250610351563	260.6528625488281	1379.574340820313	720.9838256835938	618.500732421875	1413.801635742188	665.0084228515625	618.734619140625	1362.658203125	714.4462280273438	728.9771118164063	1417.642700195313	663.7955322265625	728.6192016601563	1368.502319335938	762.5730590820313	432.7491455078125	1360.546142578125	
134	0.8866666666666667	694.0888671875	100.7830200195313	1055.097045898438	715.2658081054688	105.001838684082	1134.259765625	837.5607299804688	977.9395141601563	1131.876586914063	747.1211547851563	896.4140014648438	1064.069946289063	629.6513061523438	38.82792663574219	1086.566284179688	662.4074096679688	58.40707778930664	1046.555541992188	638.5787353515625	85.585693359375	1087.598876953125	700.6597290039063	451.359619140625	1050.520385742188	762.44580078125	1039.42041015625	1086.389892578125	710.9290771484375	516.6754150390625	1056.8251953125	703.34423828125	504.9303588867188	1170.94921875	842.7848510742188	61.38678741455078	1129.281372070313	841.7347412109375	65.88536071777344	1081.747436523438	816.5068359375	49.63848876953125	1028.255249023438	668.8449096679688	1000.690307617188	1188.90185546875	695.7781372070313	184.4515991210938	1047.504638671875	652.7923583984375	179.3954772949219	1074.407470703125	686.2784423828125	264.2129821777344	1038.536010742188	641.3709106445313	263.4504699707031	1067.610229492188	728.4933471679688	632.4697265625	1043.239990234375	666.28466796875	634.83251953125	1081.948120117188	727.2037353515625	743.0297241210938	1042.131469726563	671.3309326171875	745.1373901367188	1083.015747070313	750.4599609375	430.4859619140625	1097.976196289063	692.7344970703125	95.79962921142578	1398.909057617188	714.72265625	111.0005569458008	1320.519775390625	832.0526733398438	975.4074096679688	1335.656127929688	763.9397583007813	893.5307006835938	1400.585083007813	628.4189453125	39.17362976074219	1364.793823242188	660.266845703125	56.38866806030273	1405.32470703125	636.0237426757813	84.77242279052734	1364.529907226563	713.5469360351563	450.0563049316406	1415.564453125	759.3692626953125	1029.822875976563	1376.268432617188	711.552734375	526.7478637695313	1405.410888671875	715.8101806640625	506.8410339355469	1291.596435546875	842.0108032226563	63.34677124023438	1332.84814453125	855.7720336914063	64.64981842041016	1375.328002929688	814.1927490234375	53.01271438598633	1430.350708007813	666.8113403320313	1002.294616699219	1274.2685546875	685.9116821289063	179.0618286132813	1410.00537109375	648.8662719726563	181.6517486572266	1370.022338867188	676.7623291015625	258.990966796875	1421.123779296875	642.1275024414063	260.6455078125	1379.568115234375	721.0010986328125	618.5040893554688	1413.80029296875	665.0118408203125	618.7295532226563	1362.651977539063	714.4703979492188	728.974609375	1417.641967773438	663.8151245117188	728.619384765625	1368.51171875	762.578857421875	432.7459716796875	1360.55322265625	
135	0.8933333333333334	694.10498046875	100.787239074707	1055.107788085938	715.2714233398438	105.0111846923828	1134.257690429688	837.5682983398438	977.9398193359375	1131.880126953125	747.1276245117188	896.4186401367188	1064.08349609375	629.656494140625	38.82454299926758	1086.560180664063	662.4050903320313	58.40748596191406	1046.562622070313	638.5682983398438	85.58718109130859	1087.590454101563	700.6506958007813	451.3602905273438	1050.524047851563	762.45068359375	1039.420654296875	1086.382080078125	710.937255859375	516.6742553710938	1056.82421875	703.3380737304688	504.9356689453125	1170.968383789063	842.7750244140625	61.38720703125	1129.276123046875	841.7377319335938	65.89371490478516	1081.747314453125	816.5121459960938	49.63959884643555	1028.258911132813	668.8521118164063	1000.68505859375	1188.906494140625	695.78857421875	184.45556640625	1047.508422851563	652.7919921875	179.3951110839844	1074.40771484375	686.2758178710938	264.2184448242188	1038.54541015625	641.3744506835938	263.447021484375	1067.606079101563	728.49462890625	632.4708862304688	1043.23828125	666.279296875	634.8305053710938	1081.95361328125	727.2073364257813	743.0352783203125	1042.136596679688	671.3328857421875	745.1436767578125	1083.022216796875	750.463134765625	430.4850463867188	1097.977661132813	692.7445678710938	95.79903411865234	1398.914916992188	714.7139282226563	111.0084915161133	1320.50830078125	832.0695190429688	975.4090576171875	1335.653686523438	763.9591674804688	893.5161743164063	1400.577514648438	628.4224243164063	39.17004013061523	1364.783203125	660.265380859375	56.38630676269531	1405.31982421875	636.025634765625	84.77480316162109	1364.538208007813	713.5439453125	450.0465698242188	1415.571166992188	759.388671875	1029.827758789063	1376.278198242188	711.557861328125	526.7484741210938	1405.410766601563	715.7955322265625	506.8346557617188	1291.592651367188	842.0111694335938	63.35297775268555	1332.850219726563	855.7645263671875	64.66119384765625	1375.333618164063	814.1980590820313	53.01691055297852	1430.360473632813	666.8226318359375	1002.28662109375	1274.2734375	685.9186401367188	179.0670776367188	1410.015502929688	648.864990234375	181.6460723876953	1370.02392578125	676.7678833007813	258.9865112304688	1421.128051757813	642.1362915039063	260.6476440429688	1379.571655273438	721.0114135742188	618.5100708007813	1413.798950195313	665.0341796875	618.7225341796875	1362.654174804688	714.4783325195313	728.98046875	1417.644653320313	663.827392578125	728.6168212890625	1368.50634765625	762.5890502929688	432.7504272460938	1360.538452148438	
